<svg width="146" height="616" viewBox="0 0 146 616" fill="none" xmlns="http://www.w3.org/2000/svg">
<path d="M72 0L72 382" stroke="#685545" stroke-width="3" stroke-linecap="round"/>
<path d="M64.3061 312.343C65.6568 338.942 61.4921 375.357 59.241 390.24C53.8945 375.99 42.0197 340.462 37.2923 312.343C32.5649 284.224 28.8504 223.046 27.1621 196.447C38.9806 223.996 62.9554 285.744 64.3061 312.343Z" fill="#83B55C"/>
<path d="M64.3061 312.343C65.6568 338.942 61.4921 375.357 59.241 390.24C53.8945 375.99 52.9913 315.077 52.9913 315.077C52.9913 315.077 32.5061 220.898 27.1621 196.447C38.9806 223.996 62.9554 285.744 64.3061 312.343Z" fill="#658C46"/>
<path d="M72.9159 390.636C72.9159 390.636 25.6711 389.412 24.7593 391.169C8.89897 421.721 42.1135 480.55 46.592 483.345C48.8313 484.742 72.9159 485.477 72.9159 485.477V390.636Z" fill="#BA7D22"/>
<path d="M72.2841 390.636C72.2841 390.636 119.529 389.412 120.441 391.169C136.301 421.721 103.087 480.55 98.608 483.345C96.3687 484.742 72.2841 485.477 72.2841 485.477V390.636Z" fill="#BA7D22"/>
<mask id="mask0_91_138" style="mask-type:alpha" maskUnits="userSpaceOnUse" x="20" y="390" width="105" height="96">
<path d="M72.9159 390.636C72.9159 390.636 25.6711 389.412 24.7593 391.169C8.89897 421.721 42.1135 480.55 46.592 483.345C48.8313 484.742 72.9159 485.477 72.9159 485.477V390.636Z" fill="#BA7D22"/>
<path d="M72.4159 390.636C72.4159 390.636 119.661 389.412 120.573 391.169C136.433 421.721 103.218 480.55 98.7398 483.345C96.5005 484.742 72.4159 485.477 72.4159 485.477V390.636Z" fill="#BA7D22"/>
</mask>
<g mask="url(#mask0_91_138)">
<path d="M94.6827 474.678C128.083 403.711 94.6826 400.192 20.089 398.432C14.3717 398.298 16.1923 378.491 16.1923 378.491C55.1592 378.296 138.993 386.233 140.329 386.702C141.048 386.955 147.173 447.969 137.546 471.745C129.269 492.188 61.2825 545.644 94.6827 474.678Z" fill="#A15718"/>
</g>
<rect x="21.2024" y="380.837" width="102.427" height="11.73" rx="3" fill="#BA7D22"/>
<path d="M83.7106 313.307C79.8617 325.988 83.7106 391 83.7106 391C90.6092 360.294 87.3023 328.529 105.49 311.588C115.85 301.939 116.238 267.118 146 229C146 229 103.837 247 83.7106 313.307Z" fill="#658C46"/>
<path d="M93 484L72 426" stroke="#685545" stroke-width="4" stroke-linecap="round"/>
<path d="M51 484L72 426" stroke="#685545" stroke-width="4" stroke-linecap="round"/>
<path d="M123 429L72 219" stroke="#685545" stroke-width="3" stroke-linecap="round"/>
<path d="M22 429L72 219" stroke="#685545" stroke-width="3" stroke-linecap="round"/>
<path d="M121.104 428.151L119.086 450.436M121.104 428.151L122.398 456.888M121.104 428.151L124.603 444.572" stroke="#685545" stroke-width="3" stroke-linecap="round"/>
<path d="M25.1681 428.697L27.1855 450.982M25.1681 428.697L23.874 457.434M25.1681 428.697L21.6686 445.118" stroke="#685545" stroke-width="3" stroke-linecap="round"/>
<circle cx="71.6911" cy="428.691" r="5.69106" fill="#685545"/>
<path d="M124 429L21 429" stroke="#685545" stroke-width="4" stroke-linecap="round"/>
<path d="M81 381.617C94.6216 353.741 104.218 387.687 106.541 404.372C109.946 428.834 123 437.367 113.351 464.104C104.611 488.326 104.393 514.623 109.946 526.681C113.351 534.076 109.946 551.143 109.946 562.52C109.946 578.9 123 583 123 583" stroke="#83B55C" stroke-width="3" stroke-linecap="round"/>
<path d="M35.956 331.216C41.6923 332.56 42.967 339.953 53.1648 347.346C49.978 346.674 46.4088 349.9 37.2308 352.051C25.7582 354.739 23.8462 348.018 20.022 343.314C16.1978 338.609 6 335.248 6 335.248C6 335.248 30.2198 329.871 35.956 331.216Z" fill="#AFD094"/>
<path d="M64 387C63.5751 376.694 60.8132 354.336 53.1648 347.346M53.1648 347.346C42.967 339.953 41.6923 332.56 35.956 331.216C30.2198 329.871 6 335.248 6 335.248C6 335.248 16.1978 338.609 20.022 343.314C23.8462 348.018 25.7582 354.739 37.2308 352.051C46.4088 349.9 49.978 346.674 53.1648 347.346Z" stroke="#AFD094" stroke-width="3" stroke-miterlimit="16"/>
<path d="M116.532 340C113.854 340 110.605 340.558 100.998 347.361C104 346.742 107.655 360.505 116.532 360.505C125.639 360.505 136.888 374.701 136.888 374.701C136.888 374.701 137.634 358.968 135.281 354.196C131.135 345.789 120.818 340 116.532 340Z" fill="#AFD094"/>
<path d="M86 391C86.4003 381.518 93.7935 353.792 100.998 347.361M100.998 347.361C110.605 340.558 113.854 340 116.532 340C120.818 340 131.135 345.789 135.281 354.196C137.634 358.968 136.888 374.701 136.888 374.701C136.888 374.701 125.639 360.505 116.532 360.505C107.655 360.505 104 346.742 100.998 347.361Z" stroke="#AFD094" stroke-width="3" stroke-miterlimit="16"/>
<path d="M66 256.144C66 272.67 71.7084 356.151 76.7033 382C80.6279 360.812 79.4107 362.158 93.8288 299.367C103.462 257.415 93.8288 224.362 90.6178 211.649C83.7405 184.421 93.8288 143 93.8288 143C93.8288 143 66.0001 214.019 66 256.144Z" fill="#83B55C" stroke="#83B55C" stroke-miterlimit="16" stroke-linecap="round" stroke-linejoin="round"/>
<path d="M76.9442 339.02C77.6649 347.807 71.216 375.347 68.3519 388C68.3519 359.918 62.1381 350.749 63.6838 339.02C65.99 321.52 56.1888 303.754 51 290C61.9542 305.474 75.7911 324.959 76.9442 339.02Z" fill="#AFD094"/>
<path d="M68.3519 388H66.8519L69.8149 388.331L68.3519 388ZM76.9442 339.02L78.4392 338.897L78.4392 338.897L76.9442 339.02ZM51 290L52.2243 289.133L45.4711 279.594L49.5965 290.529L51 290ZM63.6838 339.02L65.171 339.216L65.171 339.216L63.6838 339.02ZM69.8149 388.331C71.2445 382.016 73.5789 371.941 75.4642 362.349C76.4069 357.553 77.2411 352.86 77.7947 348.803C78.3435 344.782 78.6339 341.271 78.4392 338.897L75.4492 339.142C75.6149 341.162 75.3694 344.388 74.8222 348.398C74.2799 352.372 73.4579 357.002 72.5205 361.771C70.6456 371.309 68.3235 381.331 66.889 387.669L69.8149 388.331ZM78.4392 338.897C77.8335 331.511 73.9337 322.878 68.9447 314.286C63.932 305.654 57.6929 296.858 52.2243 289.133L49.7757 290.867C55.2613 298.615 61.4178 307.299 66.3504 315.793C71.3067 324.328 74.9019 332.467 75.4492 339.142L78.4392 338.897ZM49.5965 290.529C50.9056 293.999 52.5078 297.728 54.1104 301.578C55.7202 305.444 57.3431 309.462 58.731 313.584C61.5109 321.841 63.3064 330.403 62.1967 338.824L65.171 339.216C66.3675 330.137 64.4155 321.066 61.5741 312.627C60.1514 308.401 58.4952 304.304 56.88 300.425C55.2576 296.528 53.6888 292.878 52.4035 289.471L49.5965 290.529ZM62.1967 338.824C61.3854 344.98 62.6211 350.478 63.9638 357.653C65.3147 364.872 66.8519 374.086 66.8519 388H69.8519C69.8519 373.832 68.2822 364.42 66.9127 357.102C65.5349 349.739 64.4366 344.788 65.171 339.216L62.1967 338.824Z" fill="#AFD094"/>
<path d="M78 381H89.7754C91.8579 381 92.8991 381 93.6501 381.495C93.9903 381.719 94.2814 382.01 94.5054 382.35C95 383.101 95 384.142 95 386.225V386.225C95 388.504 95 389.644 94.4425 390.426C94.1908 390.779 93.8655 391.073 93.4891 391.288C92.6556 391.765 91.5216 391.651 89.2535 391.423L83.3933 390.835C81.2156 390.616 80.1268 390.507 79.3957 389.846C79.291 389.752 79.1931 389.65 79.1028 389.542C78.4718 388.785 78.4056 387.693 78.2732 385.508L78 381Z" fill="#BA7D22"/>
<path d="M65 380.91C80.1875 372.376 74.4531 394.264 79.0025 410.571C81.2411 418.594 70.6079 429.484 79.0025 448.971C89.223 472.695 76.3299 483.189 76.7641 505.137C77.1993 527.141 88.5166 526.916 79.5622 555" stroke="#83B55C" stroke-width="3" stroke-linecap="round"/>
<path d="M85.7472 383.125C89.4006 383.716 95.5962 388.176 96 389.5C92.9079 389.5 90.6726 391.715 86.5 392.5C80.7344 393.585 76.5049 386.163 75.8978 386.206C75.8629 386.231 75.8448 386.244 75.8448 386.244C75.8573 386.22 75.875 386.208 75.8978 386.206C76.4636 385.81 81.4464 382.43 85.7472 383.125Z" fill="#658C46"/>
<path d="M89.7737 411.557C92.5733 413.978 95.506 421.026 95.1548 422.365C92.5228 420.742 89.4577 421.454 85.4939 419.932C80.017 417.83 80.3125 409.292 79.7728 409.011C79.7302 409.013 79.7079 409.015 79.7079 409.015C79.731 409.001 79.7525 409 79.7728 409.011C80.4622 408.97 86.478 408.708 89.7737 411.557Z" fill="#658C46"/>
<path d="M67.5719 395.557C64.7723 397.978 61.8396 405.026 62.1908 406.365C64.8228 404.742 67.8879 405.454 71.8517 403.932C77.3287 401.83 77.0331 393.292 77.5728 393.011C77.6154 393.013 77.6377 393.015 77.6377 393.015C77.6146 393.001 77.5931 393 77.5728 393.011C76.8834 392.97 70.8676 392.708 67.5719 395.557Z" fill="#658C46"/>
<path d="M66.5719 424.557C63.7723 426.978 60.8396 434.026 61.1908 435.365C63.8228 433.742 66.8879 434.454 70.8517 432.932C76.3287 430.83 76.0331 422.292 76.5728 422.011C76.6154 422.013 76.6377 422.015 76.6377 422.015C76.6146 422.001 76.5931 422 76.5728 422.011C75.8834 421.97 69.8676 421.708 66.5719 424.557Z" fill="#658C46"/>
<path d="M86.3504 441.229C83.3815 439.02 75.8656 437.682 74.6344 438.315C76.7885 440.533 76.7566 443.68 79.1002 447.22C82.3383 452.112 90.6097 449.976 91.0013 450.442C91.0081 450.484 91.0113 450.506 91.0113 450.506C91.0196 450.481 91.016 450.46 91.0013 450.442C90.8913 449.76 89.8455 443.83 86.3504 441.229Z" fill="#658C46"/>
<path d="M71.3545 459.871C68.8865 462.628 66.8766 469.993 67.3957 471.276C69.7992 469.331 72.9301 469.646 76.6675 467.631C81.8316 464.847 80.4496 456.417 80.949 456.069C80.9916 456.066 81.0138 456.065 81.0138 456.065C80.9892 456.054 80.9678 456.056 80.949 456.069C80.26 456.117 74.2599 456.624 71.3545 459.871Z" fill="#658C46"/>
<path d="M90.2255 486.258C88.0053 483.297 81.1779 479.882 79.8177 480.139C81.2539 482.877 80.3307 485.886 81.5735 489.946C83.2907 495.555 91.8283 495.853 92.0716 496.411C92.0661 496.454 92.063 496.476 92.063 496.476C92.0781 496.454 92.0807 496.432 92.0716 496.411C92.1596 495.726 92.8391 489.743 90.2255 486.258Z" fill="#658C46"/>
<path d="M68.3147 498.258C70.5348 495.297 77.3623 491.882 78.7224 492.139C77.2862 494.877 78.2094 497.886 76.9666 501.946C75.2494 507.555 66.7118 507.853 66.4685 508.411C66.474 508.454 66.4772 508.476 66.4772 508.476C66.462 508.454 66.4594 508.432 66.4685 508.411C66.3806 507.726 65.7011 501.743 68.3147 498.258Z" fill="#658C46"/>
<path d="M71.2015 525.113C68.9994 528.088 67.6801 535.607 68.3158 536.837C70.5289 534.677 73.6755 534.701 77.2102 532.349C82.0943 529.099 79.9377 520.833 80.4027 520.44C80.4448 520.433 80.4669 520.43 80.4669 520.43C80.4414 520.421 80.4202 520.425 80.4027 520.44C79.7212 520.551 73.7938 521.612 71.2015 525.113Z" fill="#658C46"/>
<path d="M86.9749 508.481C83.6419 510.09 78.9761 516.132 78.9668 517.516C81.9304 516.634 84.7046 518.119 88.9278 517.681C94.7633 517.076 96.6997 508.756 97.294 508.625C97.3346 508.638 97.3556 508.646 97.3556 508.646C97.3369 508.626 97.3164 508.62 97.294 508.625C96.6388 508.407 90.8986 506.588 86.9749 508.481Z" fill="#658C46"/>
<path d="M104.827 369.867C111.5 369 114.676 374.918 115.08 376.242C110 373.5 108 377.5 104.827 377.5C99.1666 377.5 95.7684 373.033 95.0429 372.93C94.9653 372.966 94.9244 372.986 94.9244 372.986C94.9485 372.94 94.9881 372.923 95.0429 372.93C95.8507 372.558 100.642 370.41 104.827 369.867Z" fill="#658C46"/>
<path d="M95.3065 399.673C97.8092 393.907 104.002 394.822 105.242 395.269C101.338 398.5 102.854 401.582 101.338 404.086C98.6345 408.552 93.4816 408.651 93.0538 409.164C93.045 409.246 93.0408 409.289 93.0408 409.289C93.0161 409.244 93.0214 409.203 93.0538 409.164C93.1454 408.311 93.7368 403.29 95.3065 399.673Z" fill="#658C46"/>
<path d="M106.421 424.016C104.191 429.894 97.9619 429.27 96.7031 428.882C100.45 425.471 98.7918 422.464 100.188 419.892C102.68 415.304 107.822 414.963 108.226 414.43C108.231 414.348 108.233 414.305 108.233 414.305C108.259 414.349 108.256 414.39 108.226 414.43C108.174 415.286 107.819 420.33 106.421 424.016Z" fill="#658C46"/>
<path d="M106.902 437.796C103.165 442.85 107.059 447.752 108.066 448.601C108.908 443.604 112.335 443.372 113.742 440.806C116.253 436.229 113.758 431.719 113.988 431.092C114.054 431.043 114.09 431.018 114.09 431.018C114.038 431.019 114.005 431.044 113.988 431.092C113.296 431.598 109.246 434.625 106.902 437.796Z" fill="#658C46"/>
<path d="M125.416 451.074C123.186 445.197 116.957 445.82 115.698 446.209C119.446 449.619 117.787 452.627 119.184 455.199C121.675 459.787 126.817 460.128 127.221 460.66C127.226 460.742 127.228 460.786 127.228 460.786C127.255 460.742 127.251 460.7 127.221 460.66C127.169 459.804 126.814 454.761 125.416 451.074Z" fill="#658C46"/>
<path d="M121.416 551.074C119.186 545.197 112.957 545.82 111.698 546.209C115.446 549.619 113.787 552.627 115.184 555.199C117.675 559.787 122.817 560.128 123.221 560.66C123.226 560.742 123.228 560.786 123.228 560.786C123.255 560.742 123.251 560.7 123.221 560.66C123.169 559.804 122.814 554.761 121.416 551.074Z" fill="#658C46"/>
<path d="M97.5154 497.074C99.7448 491.197 105.974 491.82 107.233 492.209C103.486 495.619 105.144 498.627 103.748 501.199C101.256 505.787 96.1137 506.128 95.7104 506.66C95.7054 506.742 95.7033 506.786 95.7033 506.786C95.6765 506.742 95.6799 506.7 95.7104 506.66C95.7619 505.804 96.1171 500.761 97.5154 497.074Z" fill="#658C46"/>
<path d="M119.416 411.257C117.186 417.135 110.957 416.511 109.698 416.123C113.446 412.712 111.787 409.705 113.184 407.133C115.675 402.545 120.817 402.204 121.221 401.671C121.226 401.589 121.228 401.546 121.228 401.546C121.255 401.59 121.251 401.631 121.221 401.671C121.169 402.527 120.814 407.571 119.416 411.257Z" fill="#658C46"/>
<path d="M112.178 389.597C117.946 392.095 117.037 398.289 116.591 399.529C113.356 395.628 110.276 397.147 107.771 395.633C103.302 392.933 103.199 387.78 102.685 387.353C102.604 387.344 102.56 387.34 102.56 387.34C102.606 387.315 102.647 387.32 102.685 387.353C103.538 387.443 108.56 388.031 112.178 389.597Z" fill="#658C46"/>
<path d="M105.003 462.839C102.203 464.878 98.831 471.196 99.0226 472.463C101.592 471.151 104.331 472.034 108.11 470.913C113.332 469.363 113.892 461.429 114.413 461.208C114.452 461.213 114.472 461.216 114.472 461.216C114.453 461.202 114.433 461.2 114.413 461.208C113.786 461.12 108.3 460.439 105.003 462.839Z" fill="#658C46"/>
<path d="M99.3147 528.258C101.535 525.297 108.362 521.882 109.722 522.139C108.286 524.877 109.209 527.886 107.967 531.946C106.249 537.555 97.7118 537.853 97.4685 538.411C97.474 538.454 97.4772 538.476 97.4772 538.476C97.462 538.454 97.4594 538.432 97.4685 538.411C97.3806 537.726 96.7011 531.743 99.3147 528.258Z" fill="#658C46"/>
<path d="M110.218 482.455C111.501 485.926 116.178 491.417 117.555 491.559C117.862 490.373 119.44 487.787 119.629 482.379C119.856 475.854 111.417 472.814 111.349 472.195C111.366 472.157 111.375 472.137 111.375 472.137C111.355 472.153 111.347 472.172 111.349 472.195C111.073 472.816 108.707 478.364 110.218 482.455Z" fill="#658C46"/>
<path d="M113.856 509.041C112.218 506.305 107.374 502.428 106.18 502.541C106.105 503.602 105.169 506.07 105.86 510.701C106.694 516.291 114.354 517.445 114.509 517.96C114.5 517.995 114.496 518.013 114.496 518.013C114.51 517.996 114.514 517.979 114.509 517.96C114.646 517.385 115.786 512.264 113.856 509.041Z" fill="#658C46"/>
<path d="M88.2437 381.249C91.2318 375.22 97.9164 375.869 99.2416 376.269C94.1392 378.968 96.353 382.854 94.5895 385.492C91.4437 390.197 85.8417 390.54 85.353 391.086C85.3396 391.17 85.333 391.215 85.333 391.215C85.3083 391.169 85.3161 391.127 85.353 391.086C85.4924 390.207 86.3695 385.031 88.2437 381.249Z" fill="#658C46"/>
<path d="M66 383.52C49.6915 364.787 32.8727 390.713 30.5712 407.363C27.1971 431.774 14.8251 457.887 24.3853 484.568C33.0457 508.739 24.6003 516.275 20.4487 528.847C17.0746 539.066 33.9454 554.393 30.5712 589.59C29.0115 605.859 30.5712 614 30.5712 614" stroke="#83B55C" stroke-width="3" stroke-linecap="round"/>
<path d="M55 381H72V389C72 390.657 70.6569 392 69 392H58C56.3431 392 55 390.657 55 389V381Z" fill="#BA7D22"/>
<path d="M23.3494 522.764C25.1114 520.107 26.5206 514.064 25.9037 513.036C24.9143 513.426 22.2844 513.645 18.4032 516.266C13.7196 519.428 15.9809 526.837 15.5831 527.199C15.548 527.206 15.5296 527.21 15.5296 527.21C15.5512 527.216 15.5689 527.212 15.5831 527.199C16.1613 527.074 21.2729 525.895 23.3494 522.764Z" fill="#658C46"/>
<path d="M25.0158 389.979C28.4308 388.553 35.6368 388.237 36.6785 389.148C36.0195 390.181 35.2015 393.098 31.3711 396.92C26.7487 401.531 18.7742 397.424 18.2748 397.796C18.2586 397.834 18.2504 397.854 18.2504 397.854C18.2486 397.829 18.2569 397.81 18.2748 397.796C18.542 397.171 20.9913 391.66 25.0158 389.979Z" fill="#658C46"/>
<path d="M38.7472 372.125C42.4006 372.716 48.6883 376.25 49.0921 377.574C47.9873 378.104 45.7531 380.15 40.4827 381.374C34.1227 382.852 29.5165 375.155 28.8961 375.208C28.8623 375.231 28.8448 375.244 28.8448 375.244C28.8567 375.221 28.8738 375.209 28.8961 375.208C29.4529 374.817 34.4419 371.429 38.7472 372.125Z" fill="#658C46"/>
<path d="M57.8662 383.352C59.388 386.726 59.907 393.92 59.0251 394.987C57.9742 394.357 55.0354 393.622 51.1074 389.901C46.3674 385.41 50.2481 377.323 49.8623 376.834C49.8239 376.819 49.8037 376.811 49.8037 376.811C49.8291 376.809 49.8484 376.817 49.8623 376.834C50.4947 377.084 56.0728 379.377 57.8662 383.352Z" fill="#658C46"/>
<path d="M19.9951 411.551C22.7067 409.033 29.3594 406.246 30.6521 406.741C30.3905 407.938 30.6311 410.958 28.3574 415.868C25.6137 421.793 16.7112 420.695 16.3712 421.216C16.3691 421.257 16.3683 421.279 16.3683 421.279C16.3578 421.256 16.359 421.235 16.3712 421.216C16.4058 420.537 16.7994 414.519 19.9951 411.551Z" fill="#658C46"/>
<path d="M12.9951 440.551C15.7067 438.033 22.3594 435.246 23.6521 435.741C23.3905 436.938 23.6311 439.958 21.3574 444.868C18.6137 450.793 9.71122 449.695 9.37117 450.216C9.36907 450.257 9.36829 450.279 9.36829 450.279C9.35779 450.256 9.35898 450.235 9.37117 450.216C9.40576 449.537 9.79941 443.519 12.9951 440.551Z" fill="#658C46"/>
<path d="M41.4366 414.551C38.7249 412.033 32.0722 409.246 30.7796 409.741C31.0411 410.938 30.8005 413.958 33.0742 418.868C35.8179 424.793 44.7204 423.695 45.0605 424.216C45.0626 424.257 45.0633 424.279 45.0633 424.279C45.0738 424.256 45.0727 424.235 45.0605 424.216C45.0259 423.537 44.6322 417.519 41.4366 414.551Z" fill="#658C46"/>
<path d="M26.2184 438.455C27.5006 441.926 32.178 447.417 33.555 447.559C33.8621 446.373 35.4404 443.787 35.6287 438.379C35.856 431.854 27.4171 428.814 27.3492 428.195C27.366 428.157 27.375 428.137 27.375 428.137C27.3551 428.153 27.3468 428.172 27.3492 428.195C27.0735 428.816 24.7072 434.364 26.2184 438.455Z" fill="#658C46"/>
<path d="M23.2559 464.716C24.8936 467.452 29.7381 471.329 30.9321 471.216C31.0067 470.155 31.9427 467.687 31.2517 463.055C30.4179 457.466 22.7582 456.312 22.6031 455.797C22.6114 455.762 22.616 455.744 22.616 455.744C22.6016 455.761 22.5975 455.778 22.6031 455.797C22.4662 456.372 21.326 461.493 23.2559 464.716Z" fill="#658C46"/>
<path d="M29.2559 505.18C30.8936 507.915 35.7381 511.792 36.9321 511.679C37.0067 510.618 37.9427 508.151 37.2517 503.519C36.4179 497.929 28.7582 496.775 28.6031 496.26C28.6114 496.225 28.616 496.207 28.616 496.207C28.6016 496.224 28.5975 496.242 28.6031 496.26C28.4662 496.836 27.326 501.956 29.2559 505.18Z" fill="#658C46"/>
<path d="M12.6382 467.305C11.0454 470.067 10.016 476.186 10.6959 477.174C11.659 476.723 14.2701 476.34 17.9802 473.482C22.4574 470.033 19.7383 462.78 20.1127 462.394C20.1472 462.384 20.1654 462.379 20.1654 462.379C20.1435 462.375 20.1261 462.38 20.1127 462.394C19.5434 462.555 14.5153 464.05 12.6382 467.305Z" fill="#658C46"/>
<path d="M16.6382 490.305C15.0454 493.067 14.016 499.186 14.6959 500.174C15.659 499.723 18.2701 499.34 21.9802 496.482C26.4574 493.033 23.7383 485.78 24.1127 485.394C24.1472 485.384 24.1654 485.379 24.1654 485.379C24.1435 485.375 24.1261 485.38 24.1127 485.394C23.5434 485.555 18.5153 487.05 16.6382 490.305Z" fill="#658C46"/>
<path d="M32.9376 542.57C30.3435 540.717 24.3534 539.099 23.304 539.679C23.6595 540.682 23.7874 543.318 26.2714 547.288C29.269 552.078 36.7518 550.076 37.0999 550.486C37.1062 550.521 37.1093 550.54 37.1093 550.54C37.1157 550.519 37.1123 550.501 37.0999 550.486C36.9954 549.904 35.9948 544.754 32.9376 542.57Z" fill="#658C46"/>
<path d="M22.0335 569.279C20.3292 571.973 19.0507 578.045 19.6897 579.06C20.6704 578.648 23.295 578.372 27.1187 575.668C31.733 572.406 29.3124 565.048 29.7023 564.677C29.7372 564.669 29.7555 564.665 29.7555 564.665C29.7339 564.659 29.7163 564.664 29.7023 564.677C29.127 564.814 24.042 566.103 22.0335 569.279Z" fill="#658C46"/>
<path d="M45.2465 396.492C43.3372 393.687 37.7667 390.91 36.4134 391.624C36.3482 393.049 36.1305 394.264 37 400C37.8781 405.793 46.0093 407.013 46.1537 407.847C46.1436 407.905 46.1379 407.935 46.1379 407.935C46.1539 407.906 46.1589 407.877 46.1537 407.847C46.308 406.97 47.4853 399.78 45.2465 396.492Z" fill="#658C46"/>
</svg>
